<svg width="30" height="30" viewBox="0 0 30 30" fill="none" xmlns="http://www.w3.org/2000/svg">
<path fill-rule="evenodd" clip-rule="evenodd" d="M6.31582 8.68424C6.31582 3.91195 10.1984 0.0292969 14.9708 0.0292969C19.7431 0.0292969 23.6257 3.91189 23.6257 8.68424C23.6257 13.4566 19.7431 17.3392 14.9708 17.3392C8.00566 17.3392 2.33918 23.0057 2.33918 29.9708H0C0 25.972 1.55725 22.2125 4.38492 19.3848C6.01547 17.7543 7.95633 16.5472 10.0738 15.8165C7.8058 14.2545 6.31582 11.6402 6.31582 8.68424ZM8.655 8.6843C8.655 12.1668 11.4882 15.0001 14.9708 15.0001C18.4533 15.0001 21.2865 12.1669 21.2865 8.6843C21.2865 5.20172 18.4533 2.36848 14.9708 2.36848C11.4882 2.36848 8.655 5.20178 8.655 8.6843Z" fill="white"/>
<path d="M25.0877 22.7193V17.807H22.7486V22.7193H17.8362V25.0585H22.7486V29.9708H25.0877V25.0585H30V22.7193H25.0877Z" fill="white"/>
</svg>
