<svg width="15" height="15" viewBox="0 0 15 15" fill="none" xmlns="http://www.w3.org/2000/svg">
<path fill-rule="evenodd" clip-rule="evenodd" d="M8.86219 1.0316C11.3903 2.82149 11.989 6.32214 10.1987 8.85023L14.2686 12.8898C14.2836 12.9039 14.2973 12.9176 14.3114 12.9325C14.7575 13.4026 14.7387 14.1455 14.2686 14.5916C13.7986 15.0381 13.0557 15.0192 12.6092 14.5492L8.47385 10.4387C6.57062 11.5626 4.18495 11.4643 2.38052 10.1868C-0.147989 8.39687 -0.74633 4.89665 1.04356 2.36856C2.83345 -0.159952 6.3341 -0.758293 8.86219 1.0316ZM1.99902 5.61773C2.00031 7.61548 3.61997 9.23387 5.61772 9.23344H5.62029C7.61889 9.23002 9.23642 7.60778 9.233 5.60961C9.22915 3.61443 7.61034 1.99861 5.61515 1.99946C3.61698 2.00032 1.99859 3.61999 1.99902 5.61773Z" fill="#979797"/>
</svg>
