<svg width="40" height="40" viewBox="0 0 40 40" fill="none" xmlns="http://www.w3.org/2000/svg">
<path fill-rule="evenodd" clip-rule="evenodd" d="M20.8906 8V21.6445C22.0272 22.0477 22.8438 23.1332 22.8438 24.4062C22.8438 25.6793 22.0272 26.7648 20.8906 27.168V33H18.9375V27.168C17.8009 26.7648 16.9844 25.6793 16.9844 24.4062C16.9844 23.1332 17.8009 22.0477 18.9375 21.6445V8H20.8906ZM18.9375 24.4062C18.9375 24.9447 19.3756 25.3828 19.9141 25.3828C20.4525 25.3828 20.8906 24.9447 20.8906 24.4062C20.8906 23.8678 20.4525 23.4297 19.9141 23.4297C19.3756 23.4297 18.9375 23.8678 18.9375 24.4062Z" fill="#979797"/>
<path fill-rule="evenodd" clip-rule="evenodd" d="M11.9062 8V12.2695C13.0429 12.6727 13.8594 13.7582 13.8594 15.0312C13.8594 16.3043 13.0429 17.3898 11.9062 17.793V33H9.95312V17.793C8.8165 17.3898 8 16.3043 8 15.0312C8 13.7582 8.8165 12.6727 9.95312 12.2695V8H11.9062ZM9.95312 15.0312C9.95312 15.5697 10.3912 16.0078 10.9297 16.0078C11.4682 16.0078 11.9062 15.5697 11.9062 15.0312C11.9062 14.4928 11.4682 14.0547 10.9297 14.0547C10.3912 14.0547 9.95312 14.4928 9.95312 15.0312Z" fill="#979797"/>
<path fill-rule="evenodd" clip-rule="evenodd" d="M29.875 8V16.1758C31.0116 16.5789 31.8281 17.6644 31.8281 18.9375C31.8281 20.2106 31.0116 21.2961 29.875 21.6992V33H27.9219V21.6992C26.7853 21.2961 25.9688 20.2106 25.9688 18.9375C25.9688 17.6644 26.7853 16.5789 27.9219 16.1758V8H29.875ZM27.9219 18.9375C27.9219 19.476 28.36 19.9141 28.8984 19.9141C29.4369 19.9141 29.875 19.476 29.875 18.9375C29.875 18.399 29.4369 17.9609 28.8984 17.9609C28.36 17.9609 27.9219 18.399 27.9219 18.9375Z" fill="#979797"/>
</svg>
