<svg width="33" height="30" viewBox="0 0 33 30" fill="none" xmlns="http://www.w3.org/2000/svg">
<path fill-rule="evenodd" clip-rule="evenodd" d="M27.978 3.14553C29.5682 4.29454 30.7992 5.74575 31.6366 7.45877C32.5156 9.2569 32.9614 11.3501 32.9614 13.6803C32.9614 16.0104 32.5156 18.1036 31.6366 19.9018C30.7992 21.6148 29.5682 23.066 27.978 24.2151C25.159 26.2518 21.1833 27.3284 16.4807 27.3284C15.1647 27.3284 13.8936 27.2438 12.6923 27.0767C9.96728 29.8103 6.61584 29.9678 5.88534 29.9678H5.86481H5.85811L3.54341 29.9644L4.76549 27.9996C4.77187 27.9892 5.48054 26.8215 6.02672 24.8946C2.07843 22.5755 0 18.72 0 13.6803C0 11.3501 0.445751 9.25697 1.32476 7.45877C2.16219 5.74575 3.39315 4.29454 4.98341 3.14553C7.80238 1.10875 11.7781 0.0322266 16.4807 0.0322266C21.1833 0.0322266 25.159 1.10881 27.978 3.14553ZM16.4807 24.7533C20.6384 24.7533 24.0925 23.8453 26.4698 22.1277C29.0686 20.25 30.3863 17.4079 30.3863 13.6803C30.3863 9.9527 29.0686 7.11049 26.4698 5.23285C24.0926 3.51519 20.6384 2.60733 16.4807 2.60733C12.323 2.60733 8.8688 3.51525 6.49159 5.23285C3.89279 7.11049 2.57511 9.95263 2.57511 13.6803C2.57511 18.1144 4.43034 21.2779 8.08931 23.0827L8.9953 23.5296L8.77674 24.5159C8.56474 25.473 8.30202 26.3129 8.04257 27.0128C9.04159 26.6762 10.2184 26.044 11.2378 24.8601L11.7122 24.3091L12.4291 24.4308C13.6889 24.6448 15.0521 24.7533 16.4807 24.7533Z" fill="white"/>
</svg>
