<svg width="30" height="30" viewBox="0 0 30 30" fill="none" xmlns="http://www.w3.org/2000/svg">
<path fill-rule="evenodd" clip-rule="evenodd" d="M19.9066 15.8181C22.0283 16.5502 23.9729 17.7596 25.6066 19.3934C28.4397 22.2265 30 25.9934 30 30H27.6562C27.6562 23.0213 21.9787 17.3438 15 17.3438C8.02131 17.3438 2.34375 23.0213 2.34375 30H0C0 25.9934 1.56029 22.2265 4.39342 19.3934C6.02719 17.7596 7.9718 16.5502 10.0935 15.8181C7.82103 14.253 6.32812 11.6337 6.32812 8.67188C6.32812 3.89021 10.2183 0 15 0C19.7817 0 23.6719 3.89021 23.6719 8.67188C23.6719 11.6337 22.179 14.253 19.9066 15.8181ZM8.67188 8.67188C8.67188 12.1613 11.5107 15 15 15C18.4893 15 21.3281 12.1613 21.3281 8.67188C21.3281 5.1825 18.4893 2.34375 15 2.34375C11.5107 2.34375 8.67188 5.1825 8.67188 8.67188Z" fill="white"/>
</svg>
