<svg width="30" height="30" viewBox="0 0 30 30" fill="none" xmlns="http://www.w3.org/2000/svg">
<path fill-rule="evenodd" clip-rule="evenodd" d="M3.46922 0H10.3589C12.2718 0 13.8281 1.55631 13.8281 3.46922V10.3589C13.8281 12.2718 12.2718 13.8281 10.3589 13.8281H3.46922C1.55631 13.8281 0 12.2718 0 10.3589V3.46922C0 1.55631 1.55631 0 3.46922 0ZM10.3589 11.4844C10.9795 11.4844 11.4844 10.9795 11.4844 10.3589V3.46922C11.4844 2.84865 10.9795 2.34375 10.3589 2.34375H3.46922C2.84865 2.34375 2.34375 2.84865 2.34375 3.46922V10.3589C2.34375 10.9795 2.84865 11.4844 3.46922 11.4844H10.3589Z" fill="white"/>
<path fill-rule="evenodd" clip-rule="evenodd" d="M19.6875 0H26.4844C28.4229 0 30 1.57711 30 3.51562V10.3125C30 12.251 28.4229 13.8281 26.4844 13.8281H19.6875C17.749 13.8281 16.1719 12.251 16.1719 10.3125V3.51562C16.1719 1.57711 17.749 0 19.6875 0ZM26.4844 11.4844C27.1305 11.4844 27.6562 10.9587 27.6562 10.3125V3.51562C27.6562 2.86945 27.1305 2.34375 26.4844 2.34375H19.6875C19.0413 2.34375 18.5156 2.86945 18.5156 3.51562V10.3125C18.5156 10.9587 19.0413 11.4844 19.6875 11.4844H26.4844Z" fill="white"/>
<path fill-rule="evenodd" clip-rule="evenodd" d="M3.46922 16.1719H10.3589C12.2718 16.1719 13.8281 17.7282 13.8281 19.6411V26.5308C13.8281 28.4437 12.2718 30 10.3589 30H3.46922C1.55631 30 0 28.4437 0 26.5308V19.6411C0 17.7282 1.55631 16.1719 3.46922 16.1719ZM10.3589 27.6562C10.9795 27.6562 11.4844 27.1513 11.4844 26.5308V19.6411C11.4844 19.0205 10.9795 18.5156 10.3589 18.5156H3.46922C2.84865 18.5156 2.34375 19.0205 2.34375 19.6411V26.5308C2.34375 27.1513 2.84865 27.6562 3.46922 27.6562H10.3589Z" fill="white"/>
<path fill-rule="evenodd" clip-rule="evenodd" d="M19.6875 16.1719H26.4844C28.4229 16.1719 30 17.749 30 19.6875V26.4844C30 28.4229 28.4229 30 26.4844 30H19.6875C17.749 30 16.1719 28.4229 16.1719 26.4844V19.6875C16.1719 17.749 17.749 16.1719 19.6875 16.1719ZM26.4844 27.6562C27.1305 27.6562 27.6562 27.1305 27.6562 26.4844V19.6875C27.6562 19.0413 27.1305 18.5156 26.4844 18.5156H19.6875C19.0413 18.5156 18.5156 19.0413 18.5156 19.6875V26.4844C18.5156 27.1305 19.0413 27.6562 19.6875 27.6562H26.4844Z" fill="white"/>
</svg>
