<svg width="96" height="17" viewBox="0 0 96 17" fill="none" xmlns="http://www.w3.org/2000/svg">
<path fill-rule="evenodd" clip-rule="evenodd" d="M0 4.68473H4V17H0V4.68473ZM0 0H4V3.21241H0V0Z" fill="white"/>
<path fill-rule="evenodd" clip-rule="evenodd" d="M11.3843 13.347H13.6009C14.349 13.347 14.8769 13.1867 15.1837 12.866C15.4908 12.5449 15.6445 12.1141 15.6445 11.5727C15.6445 11.0702 15.4922 10.6666 15.1886 10.3611C14.8846 10.056 14.3521 9.90304 13.5911 9.90304H11.3843V13.347ZM11.3843 6.66806H13.2746C13.9525 6.66806 14.4241 6.52717 14.6895 6.24462C14.9552 5.96245 15.0877 5.55497 15.0877 5.02099C15.0877 4.52672 14.9552 4.13986 14.6895 3.86158C14.4241 3.58331 13.9619 3.44437 13.3035 3.44437H11.3843V6.66806ZM7 0H15.1357C16.4918 0 17.5327 0.40593 18.2589 1.21779C18.9848 2.02965 19.3475 3.03455 19.3475 4.23249C19.3475 5.23777 19.0888 6.09984 18.5705 6.81868C18.2252 7.29817 17.7198 7.67685 17.0545 7.95513C18.0652 8.24858 18.8088 8.75337 19.2853 9.46832C19.7618 10.1833 20 11.0823 20 12.1643C20 13.0458 19.8306 13.8382 19.4915 14.5415C19.1524 15.2451 18.6888 15.8017 18.1003 16.2111C17.7358 16.4668 17.1856 16.6521 16.45 16.768C15.4717 16.9229 14.8223 17 14.5027 17H7V0Z" fill="white"/>
<path fill-rule="evenodd" clip-rule="evenodd" d="M30.496 0H35V9.95815C35 10.9458 34.8656 11.8784 34.5965 12.7555C34.3274 13.6329 33.9055 14.4002 33.3308 15.0576C32.7561 15.7142 32.1533 16.1757 31.5222 16.4417C30.6455 16.8136 29.5926 17 28.3637 17C27.6529 17 26.8773 16.9426 26.0368 16.8293C25.1966 16.7149 24.494 16.4891 23.9295 16.1509C23.3649 15.813 22.8483 15.3323 22.3802 14.7097C21.9117 14.0871 21.5913 13.445 21.4186 12.7842C21.1394 11.7207 21 10.779 21 9.95815V0H25.504V10.1958C25.504 11.1069 25.7247 11.8191 26.1665 12.3318C26.6082 12.8442 27.2212 13.1002 28.0051 13.1002C28.782 13.1002 29.3914 12.8481 29.8335 12.3429C30.2753 11.8382 30.496 11.1218 30.496 10.1958V0Z" fill="white"/>
<path fill-rule="evenodd" clip-rule="evenodd" d="M36 0H41.0476L44.0105 5.73478L46.9793 0H52L46.2818 9.88008V17H41.7276V9.88008L36 0Z" fill="white"/>
<path fill-rule="evenodd" clip-rule="evenodd" d="M48 17H53V12H48V17Z" fill="white"/>
<path fill-rule="evenodd" clip-rule="evenodd" d="M63.5672 10.5178L61.9449 4.40656L60.3397 10.5178H63.5672ZM64.5092 14.1938H59.3534L58.6372 17H54L59.5242 0H64.4776L70 17H65.2447L64.5092 14.1938Z" fill="white"/>
<path fill-rule="evenodd" clip-rule="evenodd" d="M74.4173 6.88812H76.272C76.4723 6.88812 76.8605 6.81105 77.4369 6.65615C77.728 6.58687 77.9659 6.40901 78.1503 6.12294C78.3347 5.83688 78.4273 5.50839 78.4273 5.13709C78.4273 4.58831 78.2813 4.1672 77.9902 3.87335C77.6988 3.5795 77.1522 3.43238 76.3494 3.43238H74.4173V6.88812ZM70 17V0H77.3299C78.6895 0 79.7281 0.138945 80.4464 0.417615C81.1651 0.695895 81.744 1.21198 82.1843 1.96586C82.6242 2.71936 82.8446 3.6371 82.8446 4.71987C82.8446 5.66329 82.6763 6.47634 82.3395 7.16056C82.0027 7.84478 81.5392 8.39978 80.95 8.82479C80.5745 9.09568 80.0596 9.31947 79.4057 9.49733C79.9294 9.70633 80.3113 9.91534 80.5506 10.124C80.7125 10.2637 80.9469 10.5614 81.2541 11.0179C81.5614 11.4745 81.7666 11.8263 81.87 12.0739L84 17H79.0302L76.6796 11.8053C76.3818 11.1324 76.1164 10.6957 75.8835 10.4949C75.5664 10.2321 75.207 10.1006 74.8058 10.1006H74.4173V17H70Z" fill="white"/>
<path fill-rule="evenodd" clip-rule="evenodd" d="M83 0H96V4.19785H91.6381V17H87.3615V4.19785H83V0Z" fill="white"/>
</svg>
